<svg xmlns="http://www.w3.org/2000/svg" viewBox="0 0 175.1 63.5" style="enable-background:new 0 0 175.1 63.5" xml:space="preserve"><g style="enable-background:new"><path d="M48.791 39.698v-2.1c0-.8-.1-1.6-.1-2.5-6 .3-12 .5-17.9.6-6 .1-12 .3-18 .4-.3 1.9-.4 3.7-.6 5.6-.1 1.9-.3 3.7-.4 5.6-.1 1.3-.4 2-.8 2-.3 0-.6-.2-1-.6-.4-.4-.7-.8-1-1.4-.3-.5-.6-1-.8-1.6-.3-.5-.4-.9-.5-1.2-.4-1-.6-2-.9-3.1-.2-1-.3-2.1-.3-3.2v-1c0-.3 0-.7.1-1.1h-2.6c-.3 0-.6 0-1-.1-.4 0-.9-.1-1.3-.3-.4-.1-.8-.3-1.1-.5-.3-.2-.5-.4-.5-.6s.1-.5.4-.7c.3-.2.7-.4 1.1-.5.5-.1.9-.2 1.5-.3.5-.1 1.1-.1 1.5-.1h2.6c.4-2 .9-4.1 1.6-6.6.7-2.4 1.5-4.9 2.5-7.3 1-2.4 2.2-4.8 3.6-7.1s2.9-4.4 4.6-6.2c1.7-1.8 3.7-3.2 5.9-4.3 2.1-1.1 4.5-1.6 7.1-1.6 2.5 0 4.7.5 6.7 1.4 2 1 3.7 2.2 5.1 3.8 1.4 1.6 2.7 3.4 3.7 5.5s1.8 4.2 2.5 6.5c.6 2.2 1.1 4.5 1.4 6.8.3 2.3.5 4.5.5 6.5.8.2 1.6.6 2.4 1.1.7.5 1.1 1.1 1.1 2 0 .4-.1.6-.4.8-.3.2-.6.4-.9.5-.4.1-.8.2-1.2.2h-1.2c-.1 1.1-.3 2.4-.5 3.9-.2 1.6-.5 3.1-.8 4.6-.3 1.5-.7 2.7-1.1 3.8-.4 1-.9 1.6-1.4 1.6-.2 0-.3-.3-.3-.8 0-1.5.1-2.9.3-4.2.3-1.4.4-2.8.4-4.2zm-25.2-29.7c-3.3 3.4-5.7 6.9-7.2 10.8-1.6 3.8-2.7 7.8-3.3 11.9 2.9-.2 5.8-.6 8.7-.9 2.9-.4 5.9-.7 8.8-1 2.9-.3 5.8-.5 8.8-.7 2.9-.2 5.9-.2 8.8 0-.3-2.7-.8-5.5-1.4-8.4-.7-2.9-1.6-5.5-2.8-7.9-1.2-2.4-2.7-4.3-4.5-5.9-1.8-1.5-4-2.3-6.6-2.3-1.7 0-3.3.4-4.9 1.2-1.7.7-3.1 1.8-4.4 3.2zM59.591 14.598c0-1.2.3-2 1-2.5.6-.5 1.3-.7 2.1-.6s1.4.3 2 .8c.6.5.8 1.2.6 2-.1.3-.1.8-.2 1.7-.1.9-.2 2-.3 3.3-.1 1.3-.2 2.8-.4 4.4s-.3 3.3-.4 5.1c.4-.5 1-.9 1.6-1.2s1.3-.5 2.2-.5c1.4 0 2.6.5 3.5 1.4.9 1 1.5 2.2 1.9 3.6.4 1.5.5 3 .4 4.6-.1 1.7-.5 3.2-1.1 4.7s-1.5 2.7-2.5 3.6c-1.1 1-2.4 1.4-3.9 1.4-1.3 0-2.4-.4-3.1-1.3v2.2c-.1.7-.4 1.2-.9 1.6-.6.4-1.2.6-1.9.6s-1.3-.1-1.8-.5c-.5-.3-.8-.9-.7-1.6.1-1.2.2-2.9.4-4.8.1-2 .3-4.1.4-6.3s.3-4.5.5-6.9c.1-2.3.3-4.5.4-6.5.1-2 .2-3.7.3-5.2-.2-1.6-.1-2.6-.1-3.1zm3.7 22.9c-.1.3-.1.6-.1.9v1c.1 1 .3 1.8.6 2.5s.8 1.1 1.5 1.2c.5.1.9-.2 1.3-.8.4-.6.7-1.4 1-2.3.3-.9.5-2 .6-3.1.2-1.2.2-2.2.3-3.3 0-1 0-1.9-.2-2.6-.1-.7-.4-1.1-.7-1.2-.6-.1-1.1 0-1.5.5-.5.5-.9 1.1-1.3 1.8-.4.8-.7 1.6-1 2.6-.2 1-.4 2-.5 2.8zM83.391 44.898c-1.9 0-3.3-.5-4.4-1.4-1.1-.9-1.9-2.1-2.3-3.5-.4-1.4-.5-2.9-.4-4.6.2-1.7.6-3.2 1.3-4.5.7-1.4 1.6-2.5 2.7-3.4 1.1-.9 2.4-1.3 3.9-1.2 1.7.1 3.2.6 4.3 1.6 1.1 1 1.9 2.1 2.4 3.5s.7 2.9.6 4.5-.4 3-1.1 4.4c-.7 1.3-1.6 2.5-2.7 3.4-1.2.8-2.6 1.2-4.3 1.2zm1-3.3c.5.1 1-.2 1.4-.8.3-.6.6-1.3.8-2.2.1-.9.2-1.9.2-3s-.1-2.1-.4-3.1c-.2-.9-.5-1.8-.9-2.4-.4-.6-.9-1-1.4-1-.5 0-.9.3-1.3.9-.4.6-.6 1.4-.8 2.2-.2.9-.3 1.9-.3 3s.1 2.1.3 3c.2.9.5 1.7.9 2.4.3.6.8.9 1.5 1zM93.491 29.398c0-.8.3-1.5.9-1.9.6-.4 1.3-.7 2.1-.8s1.4 0 2 .3c.6.3.9.7.8 1.2-.1 1.6-.3 3.3-.5 5-.2 1.8-.4 3.4-.6 4.9-.2 1.5-.3 2.8-.4 3.8-.1 1 .1 1.6.4 1.7.2.1.5-.1.8-.6.3-.5.6-1.1.9-1.9.3-.8.6-1.7.9-2.7l.9-3c.3-1 .6-1.9.8-2.8.2-.9.5-1.6.7-2.2 0-.8.4-1.2 1-1.4.6-.2 1.3-.2 2 0s1.3.5 1.8.9.8.8.7 1.3c-.2.9-.4 2-.6 3.4-.2 1.3-.3 2.7-.3 3.9-.1 1.3 0 2.3.1 3.2.1.9.4 1.3.9 1.3.3 0 .7-.4 1.1-1.2.4-.8.8-1.7 1.2-2.7.4-1 .8-2.1 1.1-3.1.3-1 .6-1.8.7-2.4.1-.5.3-.8.7-1 .3-.2.7-.2 1-.1s.6.3.9.6c.2.3.3.7.1 1.1-.1.4-.3 1.2-.6 2.2-.3 1.1-.8 2.3-1.3 3.6-.5 1.3-1.2 2.5-1.9 3.8s-1.5 2.1-2.4 2.6c-.6.4-1.2.5-1.8.5s-1.3-.2-2-.6c-.6-.3-1.2-.8-1.7-1.4-.5-.6-.8-1.4-.9-2.2-.1-.8-.2-1.6-.2-2.5-.5 1.4-1 2.7-1.6 4-.6 1.3-1.3 2.3-2.1 3.1-.5.5-1.1.9-1.8.9s-1.3 0-2-.3c-.6-.3-1.2-.7-1.6-1.3-.5-.6-.8-1.2-.9-2-.2-.8-.2-1.7-.2-2.8 0-1.1 0-2.4.1-3.8.1-1.3.2-2.7.3-4.2.4-1.6.5-3 .5-4.4z"/><path d="M113.991 22.298v-1.9c0-1.2.3-2 1-2.5.6-.5 1.3-.7 2.1-.6.8.1 1.4.3 2 .8.6.5.8 1.2.6 2l-.4 1.9h1.8c.9 0 1.6.2 2.1.5.4.3.6.7.6 1s-.2.7-.7 1c-.5.3-1.1.4-1.9.4h-2.2c-.2 1.8-.4 3.8-.5 6-.2 2.2-.3 4.2-.3 6.2s0 3.5.1 4.8c.1 1.3.3 1.9.7 1.9.3 0 .7-.5 1.2-1.3.5-.9 1.1-1.9 1.6-3.1.5-1.2 1-2.3 1.5-3.5s.8-1.9.9-2.3c.1-.4.3-.8.7-.9.3-.2.7-.2 1-.1.3.1.6.2.8.5.2.3.3.6.1 1.1-.3 1-.7 2.3-1.2 3.9s-1.1 3.2-1.9 4.7-1.7 2.8-2.7 3.9c-1 1.1-2.3 1.6-3.8 1.6-1 0-1.7-.4-2.3-1.1s-1-1.7-1.3-3c-.3-1.2-.5-2.6-.6-4.2-.1-1.6-.1-3.2 0-4.9l.3-5.1c.2-1.7.3-3.3.4-4.8h-1.8c-.8 0-1.4-.2-1.8-.5s-.6-.6-.7-1c0-.3.2-.7.6-1 .4-.3 1.1-.4 2-.4h2z"/></g><path d="m30.889 57.311 18.04-.83c6.048-.275 11.995-.557 18.033-.732 12.068-.25 24.027-.407 36.06-.258 24.074.199 48.079 1.195 72.113 2.996a1071.977 1071.977 0 0 0-71.976.027c-11.977.358-23.88 1.023-35.792 1.788-5.956.382-11.92.864-17.795 1.454l-17.794 1.455-.1-.009c-1.837.342-3.543-.812-3.983-2.657-.151-1.72 1.075-3.118 2.795-3.269l.299.026.1.01z"/><path d="M31.145 63.557c-1.802-.057-3.308-1.193-3.758-2.939-.12-.914.157-1.793.816-2.438.559-.653 1.3-1.09 2.205-1.112l.299.026.199.018 18.14-.822c5.848-.292 11.895-.566 17.834-.749 11.968-.258 24.126-.399 36.16-.25 23.974.191 48.277 1.213 72.112 2.997l-.043.498c-23.923-.788-48.114-.796-71.976.027-11.878.366-23.872.923-35.784 1.688-5.756.4-11.621.89-17.188 1.407l-18.509 1.593a1.087 1.087 0 0 1-.507.056zm-.482-5.965-.199-.017c-.706.039-1.438.376-1.889.939a3.014 3.014 0 0 0-.681 2.048c.358 1.638 1.974 2.683 3.702 2.432l.1.01 18.41-1.603c5.665-.508 11.43-1.007 17.187-1.407 11.912-.765 24.006-1.313 35.892-1.778 19.934-.666 40.023-.815 60.06-.367-20.067-1.254-40.286-1.919-60.25-2.06-12.032-.148-24.091.001-36.06.259-5.938.183-11.985.457-17.824.649l-18.448.895z"/></svg>